<?xml version="1.0" encoding="utf-8"?>

<!-- License Agreement at http://iconmonstr.com/license/ -->

<!DOCTYPE svg PUBLIC "-//W3C//DTD SVG 1.1//EN" "http://www.w3.org/Graphics/SVG/1.1/DTD/svg11.dtd">
<svg version="1.1" xmlns="http://www.w3.org/2000/svg" xmlns:xlink="http://www.w3.org/1999/xlink" x="0px" y="0px"
	 width="512px" height="512px" viewBox="0 0 512 512" enable-background="new 0 0 512 512" xml:space="preserve">
<path id="paper-plane-5-icon" d="M244.53,217.702l65.377,15.888l94.763-65.49l-70.698,74.606l71.746,68.007L462,108.958
	L244.53,217.702z M325.324,321.15l30.966-35.809l-30.966-29.831V321.15z M262.421,364.967
	c-11.146,6.834-22.611,12.925-34.197,18.124l-8.449-20.316c11.577-5.223,23.021-11.401,34.1-18.361L262.421,364.967z
	 M305.278,333.668c-7.73,6.66-15.818,12.995-24.17,18.937l-8.668-20.841c11.653-8.574,22.701-17.965,32.838-27.938V333.668z
	 M199.321,370.888c-64.123,21.736-126.364,7.718-126.364-51.437c0-36.953,27.622-63.083,67-63.083c13.252,0,25.009,2.8,33.407,7.839
	c13.438,8.398,21.463,23.33,21.463,40.499c0,14.371-5.973,28.181-15.116,35.274c-6.028,4.82-16.61,7.855-16.61,0.187
	c0-4.052-0.178-2.186,11.943-47.032c0.934-4.105,4.295-15.49,5.414-19.223h-22.024l-1.866,6.533
	c-5.037-7.84-10.265-10.453-20.717-10.453c-24.82,0-45.536,26.129-45.536,57.67c0,21.277,11.757,35.087,30.233,35.087
	c10.452,0,17.916-3.545,25.009-11.758c0.559,3.358,0.746,4.293,1.68,5.787c2.8,4.479,8.772,7.278,16.051,7.278
	c12.504,0,25.195-5.6,34.9-15.306c11.384-11.384,17.729-27.435,17.729-44.978c0-39.007-30.979-67.003-74.467-67.003
	c-28.928,0-51.51,8.4-68.682,25.569C57.839,277.457,50,297.428,50,320.57c0,52.235,42.587,82.472,95.251,82.472
	c19.291,0,40.344-3.929,62.548-11.769L199.321,370.888z M142.011,329.342c-4.853,9.518-11.385,14.932-18.289,14.932
	c-7.095,0-10.826-5.227-10.826-15.117c0-8.586,2.986-19.598,7.467-27.996c4.664-8.771,11.196-13.438,18.29-13.438
	c6.531,0,10.823,5.227,10.823,12.877C149.476,309.186,146.489,320.57,142.011,329.342z"/>
</svg>
